<?xml version="1.0" encoding="UTF-8"?>
<svg version="1.1" xmlns="http://www.w3.org/2000/svg" width="500" height="500">
<path d="M0 0 C165 0 330 0 500 0 C500 165 500 330 500 500 C335 500 170 500 0 500 C0 335 0 170 0 0 Z " fill="#FEFEFE" transform="translate(0,0)"/>
<path d="M0 0 C-1.43073003 3.83971074 -3.21062533 7.28165748 -5.265625 10.82421875 C-6.23048828 12.49194336 -6.23048828 12.49194336 -7.21484375 14.19335938 C-7.89321718 15.3580799 -8.57160266 16.52279341 -9.25 17.6875 C-9.90613281 18.82123047 -10.56226563 19.95496094 -11.23828125 21.12304688 C-15.10060834 27.78421736 -19.01492771 34.41153423 -23 41 C-27.39369805 36.84017348 -30.25318391 32.14181474 -33.375 27 C-33.94605469 26.09765625 -34.51710937 25.1953125 -35.10546875 24.265625 C-35.63527344 23.39421875 -36.16507813 22.5228125 -36.7109375 21.625 C-37.19868652 20.83351562 -37.68643555 20.04203125 -38.18896484 19.2265625 C-39 17 -39 17 -38.29296875 14.84960938 C-29.59681512 2.40964338 -14.12497298 -0.82015972 0 0 Z " fill="#050505" transform="translate(246,169)"/>
<path d="M0 0 C9.57 0 19.14 0 29 0 C31.05206304 5.13015759 31.35027218 8.32996079 31.3125 13.6875 C31.30621582 14.89079956 31.30621582 14.89079956 31.29980469 16.1184082 C31.12590718 25.26005197 28.86364892 32.28524653 24 40 C19.91471475 38.63823825 19.46098573 36.78559446 17.3828125 33.05859375 C17.04377899 32.45749283 16.70474548 31.85639191 16.35543823 31.23707581 C15.26990008 29.30862811 14.19708095 27.37345578 13.125 25.4375 C12.0600309 23.5323886 10.99245502 21.628766 9.92376709 19.72573853 C9.23369688 18.49625636 8.54540185 17.26577603 7.85894775 16.03427124 C6.00061204 12.71447884 4.06443001 9.47529984 1.9921875 6.28515625 C0 3 0 3 0 0 Z " fill="#080808" transform="translate(257,201)"/>
<path d="M0 0 C15.18 0 30.36 0 46 0 C43.99898126 5.00254686 41.61984335 9.4979804 39 14.1875 C38.54882812 15.00669922 38.09765625 15.82589844 37.6328125 16.66992188 C37.19710937 17.45302734 36.76140625 18.23613281 36.3125 19.04296875 C35.91675781 19.75477295 35.52101562 20.46657715 35.11328125 21.19995117 C34 23 34 23 32 25 C22.64036388 24.80500758 14.71552701 19.4686921 8.05078125 13.265625 C0 4.37142857 0 4.37142857 0 0 Z " fill="#020202" transform="translate(200,235)"/>
<path d="M0 0 C3.8688358 1.28961193 4.19502904 2.61079519 6.13671875 6.12890625 C6.71357422 7.16337891 7.29042969 8.19785156 7.88476562 9.26367188 C8.47966797 10.35228516 9.07457031 11.44089844 9.6875 12.5625 C10.29400391 13.65498047 10.90050781 14.74746094 11.52539062 15.87304688 C13.02527302 18.57755922 14.51634906 21.28655955 16 24 C8.85403582 33.26724519 -0.99257359 38.20691101 -12.578125 39.80078125 C-15.75043721 40.06172951 -18.81969196 40.14134702 -22 40 C-20.65669596 36.45003797 -19.08248512 33.20051316 -17.20703125 29.90234375 C-16.66199951 28.94078369 -16.11696777 27.97922363 -15.55541992 26.98852539 C-14.98025635 25.98168701 -14.40509277 24.97484863 -13.8125 23.9375 C-13.22895752 22.91068115 -12.64541504 21.8838623 -12.04418945 20.82592773 C-8.07722591 13.85601308 -4.08244904 6.90305019 0 0 Z " fill="#040404" transform="translate(260,222)"/>
<path d="M0 0 C13.57244079 3.73733877 23.96808303 11.29832378 31.1875 23.43359375 C32 25 32 25 32 26 C16.49 26 0.98 26 -15 26 C-10.03475548 17.31082209 -5.05993228 8.63350945 0 0 Z " fill="#060606" transform="translate(252,170)"/>
<path d="M0 0 C2.90427275 2.58145209 4.65452903 5.5480704 6.6171875 8.8828125 C6.95622101 9.45651581 7.29525452 10.03021912 7.64456177 10.62130737 C8.72563372 12.45340062 9.80025118 14.28919195 10.875 16.125 C11.58945306 17.33616805 12.30429324 18.54710783 13.01953125 19.7578125 C16.77167794 26.12584472 20.4091282 32.53643076 24 39 C14.1 39 4.2 39 -6 39 C-9.55457427 28.33627719 -8.21465642 14.01328142 -3.2890625 4.046875 C-2 2 -2 2 0 0 Z " fill="#040404" transform="translate(203,190)"/>
<path d="M0 0 C2.97 0 5.94 0 9 0 C9.33 4.62 9.66 9.24 10 14 C10.928125 12.515 10.928125 12.515 11.875 11 C13.74139773 8.69540454 14.58441295 8.06471737 17.55859375 7.6015625 C20.06263384 7.62287348 22.51009157 7.73892222 25 8 C24.55527344 8.51949219 24.11054688 9.03898437 23.65234375 9.57421875 C20.1833615 13.6130553 20.1833615 13.6130553 18.8125 18.5625 C20.22321669 21.45818164 21.95875706 23.91614571 23.94140625 26.44921875 C25 28 25 28 25 30 C21.92553889 30.35474551 19.05872891 30.53698855 16 30 C13.4375 27 13.4375 27 12 24 C11.34 24.33 10.68 24.66 10 25 C9.34444881 27.52733235 9.34444881 27.52733235 9 30 C6.03 30 3.06 30 0 30 C0 20.1 0 10.2 0 0 Z " fill="#101010" transform="translate(345,270)"/>
<path d="M0 0 C3.3125 1.75 3.3125 1.75 5 5 C5.37799333 9.03717879 5.2899854 12.95953677 5 17 C5.66 17 6.32 17 7 17 C7 18.65 7 20.3 7 22 C5.741875 22.020625 4.48375 22.04125 3.1875 22.0625 C2.47980469 22.07410156 1.77210938 22.08570313 1.04296875 22.09765625 C-1 22 -1 22 -4 21 C-4.66 21.33 -5.32 21.66 -6 22 C-7.64142541 22.14640501 -9.2898141 22.22096589 -10.9375 22.25 C-11.81277344 22.27578125 -12.68804687 22.3015625 -13.58984375 22.328125 C-16 22 -16 22 -17.8203125 20.703125 C-19 19 -19 19 -18.9375 15.5 C-18 12 -18 12 -16.26953125 10.29296875 C-13.53508506 8.73513452 -11.87165384 8.68927682 -8.75 8.8125 C-7.41195313 8.85310547 -7.41195313 8.85310547 -6.046875 8.89453125 C-5.37140625 8.92933594 -4.6959375 8.96414063 -4 9 C-4.33 8.01 -4.66 7.02 -5 6 C-5.66 6.165 -6.32 6.33 -7 6.5 C-10.73099794 7.12183299 -14.21873378 7.06408926 -18 7 C-17.64508084 4.42683611 -17.23682601 3.23120069 -15.35546875 1.39453125 C-10.69709191 -1.36341325 -5.21698212 -0.66037748 0 0 Z " fill="#0C0C0C" transform="translate(308,278)"/>
<path d="M0 0 C3.3125 1.75 3.3125 1.75 5 5 C5.37799333 9.03717879 5.2899854 12.95953677 5 17 C5.66 17 6.32 17 7 17 C7 18.65 7 20.3 7 22 C5.741875 22.020625 4.48375 22.04125 3.1875 22.0625 C2.47980469 22.07410156 1.77210938 22.08570313 1.04296875 22.09765625 C-1 22 -1 22 -4 21 C-4.66 21.33 -5.32 21.66 -6 22 C-7.64142541 22.14640501 -9.2898141 22.22096589 -10.9375 22.25 C-11.81277344 22.27578125 -12.68804687 22.3015625 -13.58984375 22.328125 C-16 22 -16 22 -17.8203125 20.703125 C-19 19 -19 19 -18.9375 15.5 C-18 12 -18 12 -16.26953125 10.29296875 C-13.53508506 8.73513452 -11.87165384 8.68927682 -8.75 8.8125 C-7.41195312 8.85310547 -7.41195312 8.85310547 -6.046875 8.89453125 C-5.37140625 8.92933594 -4.6959375 8.96414063 -4 9 C-4.33 8.01 -4.66 7.02 -5 6 C-5.66 6.165 -6.32 6.33 -7 6.5 C-10.73099794 7.12183299 -14.21873378 7.06408926 -18 7 C-17.64508084 4.42683611 -17.23682601 3.23120069 -15.35546875 1.39453125 C-10.69709191 -1.36341325 -5.21698212 -0.66037748 0 0 Z " fill="#0C0C0C" transform="translate(177,278)"/>
<path d="M0 0 C7.26 0 14.52 0 22 0 C22 1.98 22 3.96 22 6 C17.71 6 13.42 6 9 6 C9 7.65 9 9.3 9 11 C12.96 11 16.92 11 21 11 C21 13.31 21 15.62 21 18 C17.04 18 13.08 18 9 18 C9 21.3 9 24.6 9 28 C6.03 28 3.06 28 0 28 C0 18.76 0 9.52 0 0 Z " fill="#080808" transform="translate(133,272)"/>
<path d="M0 0 C3.15570209 1.28543077 5.43975756 2.87951513 7 6 C7 7.98 7 9.96 7 12 C1.72 12 -3.56 12 -9 12 C-8.67 13.32 -8.34 14.64 -8 16 C-6.02 16 -4.04 16 -2 16 C-1.67 15.34 -1.34 14.68 -1 14 C1.64 14 4.28 14 7 14 C6.8125 16.3125 6.8125 16.3125 6 19 C0.72211937 22.97973046 -4.64185924 22.81785213 -11 22 C-14.07365786 20.19196596 -15.43019732 19.13960536 -17 16 C-17.53118252 11.08003072 -17.75105553 7.22672403 -15.125 2.9375 C-10.71139082 -1.08667307 -5.72241283 -0.60448023 0 0 Z " fill="#070707" transform="translate(231,278)"/>
<path d="M0 0 C9.24 0 18.48 0 28 0 C28 2.31 28 4.62 28 7 C24.7 7 21.4 7 18 7 C18 13.93 18 20.86 18 28 C15.03 28 12.06 28 9 28 C9 21.07 9 14.14 9 7 C6.03 7 3.06 7 0 7 C0 4.69 0 2.38 0 0 Z " fill="#050505" transform="translate(241,272)"/>
<path d="M0 0 C2.4375 1.875 2.4375 1.875 3.3125 5.0625 C3.35375 5.990625 3.395 6.91875 3.4375 7.875 C2.15875 7.936875 0.88 7.99875 -0.4375 8.0625 C-1.15679687 8.09730469 -1.87609375 8.13210938 -2.6171875 8.16796875 C-3.25914062 8.07128906 -3.90109375 7.97460938 -4.5625 7.875 C-5.2225 6.885 -5.8825 5.895 -6.5625 4.875 C-8.2125 5.205 -9.8625 5.535 -11.5625 5.875 C-11.583125 7.174375 -11.60375 8.47375 -11.625 9.8125 C-11.63660156 10.54339844 -11.64820313 11.27429688 -11.66015625 12.02734375 C-11.76811184 13.89232141 -11.76811184 13.89232141 -10.5625 14.875 C-8.89632885 14.91563832 -7.22861905 14.917721 -5.5625 14.875 C-5.2325 13.885 -4.9025 12.895 -4.5625 11.875 C-1.9225 11.875 0.7175 11.875 3.4375 11.875 C3.25 14.6875 3.25 14.6875 2.4375 17.875 C-2.15419626 21.39502568 -6.1338919 21.42876992 -11.73828125 21.3046875 C-14.5625 20.875 -14.5625 20.875 -17.75 18.5 C-20.86593405 13.98726793 -21.42558962 10.30683575 -20.5625 4.875 C-14.98605976 -2.16892452 -8.30364684 -2.62220427 0 0 Z " fill="#090909" transform="translate(337.5625,279.125)"/>
<path d="M0 0 C2.4375 1.875 2.4375 1.875 3.3125 5.0625 C3.35375 5.990625 3.395 6.91875 3.4375 7.875 C2.15875 7.936875 0.88 7.99875 -0.4375 8.0625 C-1.15679687 8.09730469 -1.87609375 8.13210938 -2.6171875 8.16796875 C-3.25914062 8.07128906 -3.90109375 7.97460938 -4.5625 7.875 C-5.2225 6.885 -5.8825 5.895 -6.5625 4.875 C-8.2125 5.205 -9.8625 5.535 -11.5625 5.875 C-11.583125 7.174375 -11.60375 8.47375 -11.625 9.8125 C-11.63660156 10.54339844 -11.64820313 11.27429688 -11.66015625 12.02734375 C-11.76811184 13.89232141 -11.76811184 13.89232141 -10.5625 14.875 C-8.89632885 14.91563832 -7.22861905 14.917721 -5.5625 14.875 C-5.2325 13.885 -4.9025 12.895 -4.5625 11.875 C-1.9225 11.875 0.7175 11.875 3.4375 11.875 C3.25 14.6875 3.25 14.6875 2.4375 17.875 C-2.15419626 21.39502568 -6.1338919 21.42876992 -11.73828125 21.3046875 C-14.5625 20.875 -14.5625 20.875 -17.75 18.5 C-20.86593405 13.98726793 -21.42558962 10.30683575 -20.5625 4.875 C-14.98605976 -2.16892452 -8.30364684 -2.62220427 0 0 Z " fill="#090909" transform="translate(206.5625,279.125)"/>
<path d="M0 0 C2.31 0 4.62 0 7 0 C7.33 0.66 7.66 1.32 8 2 C8.66 1.34 9.32 0.68 10 0 C13.125 -0.125 13.125 -0.125 16 0 C16 2.31 16 4.62 16 7 C13.69 7.66 11.38 8.32 9 9 C8.67 13.29 8.34 17.58 8 22 C5.36 22 2.72 22 0 22 C0 14.74 0 7.48 0 0 Z " fill="#040404" transform="translate(272,278)"/>
<path d="M0 0 C0.66 0 1.32 0 2 0 C2 4.29 2 8.58 2 13 C-1.375 13.125 -1.375 13.125 -5 13 C-5.66 12.34 -6.32 11.68 -7 11 C-6.625 7.375 -6.625 7.375 -6 4 C-4.02 4 -2.04 4 0 4 C0 2.68 0 1.36 0 0 Z " fill="#232323" transform="translate(291,312)"/>
<path d="M0 0 C1.65 0 3.3 0 5 0 C5.50559908 1.43554025 6.0042749 2.8735202 6.5 4.3125 C6.7784375 5.11300781 7.056875 5.91351563 7.34375 6.73828125 C8 9 8 9 8 12 C7.01 12 6.02 12 5 12 C5 11.01 5 10.02 5 9 C3.35 9 1.7 9 0 9 C-0.33 9.99 -0.66 10.98 -1 12 C-1.66 12 -2.32 12 -3 12 C-2.68950274 10.56206608 -2.3765224 9.1246682 -2.0625 7.6875 C-1.88847656 6.88699219 -1.71445313 6.08648437 -1.53515625 5.26171875 C-1 3 -1 3 0 0 Z " fill="#121212" transform="translate(229,313)"/>
<path d="M0 0 C0.89203125 0.10183594 1.7840625 0.20367187 2.703125 0.30859375 C3.37859375 0.39238281 4.0540625 0.47617187 4.75 0.5625 C4.75 3.5325 4.75 6.5025 4.75 9.5625 C4.09 9.5625 3.43 9.5625 2.75 9.5625 C2.75 7.2525 2.75 4.9425 2.75 2.5625 C1.43 2.5625 0.11 2.5625 -1.25 2.5625 C-1.25 4.8725 -1.25 7.1825 -1.25 9.5625 C-1.91 9.5625 -2.57 9.5625 -3.25 9.5625 C-3.25 7.2525 -3.25 4.9425 -3.25 2.5625 C-4.57 2.5625 -5.89 2.5625 -7.25 2.5625 C-7.25 4.8725 -7.25 7.1825 -7.25 9.5625 C-7.91 9.5625 -8.57 9.5625 -9.25 9.5625 C-9.25 6.5925 -9.25 3.6225 -9.25 0.5625 C-5.57266781 -0.35683305 -3.65100462 -0.43235581 0 0 Z " fill="#212121" transform="translate(179.25,315.4375)"/>
<path d="M0 0 C2.375 -0.125 2.375 -0.125 5 0 C7 2 7 2 7.1953125 3.9453125 C7.13020833 5.96354167 7.06510417 7.98177083 7 10 C4.36 10 1.72 10 -1 10 C-1.625 8.125 -1.625 8.125 -2 6 C-1.34 5.34 -0.68 4.68 0 4 C1.32 4 2.64 4 4 4 C4 3.34 4 2.68 4 2 C2.68 2.33 1.36 2.66 0 3 C0 2.01 0 1.02 0 0 Z " fill="#2F2F2F" transform="translate(190,315)"/>
<path d="M0 0 C0.33 1.65 0.66 3.3 1 5 C-0.98 5 -2.96 5 -5 5 C-5 5.66 -5 6.32 -5 7 C-3.35 7 -1.7 7 0 7 C0 7.66 0 8.32 0 9 C-2.875 9.125 -2.875 9.125 -6 9 C-6.66 8.34 -7.32 7.68 -8 7 C-7.75 3.4375 -7.75 3.4375 -7 0 C-4.3333581 -1.33332095 -2.83319697 -0.67102033 0 0 Z " fill="#313131" transform="translate(267,316)"/>
<path d="M0 0 C2.625 0.375 2.625 0.375 5 1 C5.33 2.65 5.66 4.3 6 6 C4.02 6 2.04 6 0 6 C0 6.66 0 7.32 0 8 C1.65 8 3.3 8 5 8 C5 8.66 5 9.32 5 10 C2.125 10.1875 2.125 10.1875 -1 10 C-3 7 -3 7 -2.75 4.4375 C-2 2 -2 2 0 0 Z " fill="#494949" transform="translate(300,315)"/>
<path d="M0 0 C2.625 0.375 2.625 0.375 5 1 C5.33 2.65 5.66 4.3 6 6 C4.35 6.33 2.7 6.66 1 7 C2.65 7.33 4.3 7.66 6 8 C6 8.66 6 9.32 6 10 C0.25 10.125 0.25 10.125 -2 9 C-2.125 5.625 -2.125 5.625 -2 2 C-1.34 1.34 -0.68 0.68 0 0 Z " fill="#1A1A1A" transform="translate(336,315)"/>
<path d="M0 0 C1.98 0 3.96 0 6 0 C6 0.66 6 1.32 6 2 C4.68 2 3.36 2 2 2 C2.845625 2.7425 3.69125 3.485 4.5625 4.25 C7 7 7 7 6.875 9.25 C6 11 6 11 5 12 C3.00041636 12.04080783 0.99954746 12.04254356 -1 12 C-0.67 11.01 -0.34 10.02 0 9 C1.98 9.495 1.98 9.495 4 10 C3.154375 9.278125 2.30875 8.55625 1.4375 7.8125 C-1 5 -1 5 -0.8125 2.1875 C-0.544375 1.465625 -0.27625 0.74375 0 0 Z " fill="#191919" transform="translate(159,313)"/>
<path d="M0 0 C1 1 1 1 1.09765625 2.84765625 C1.04882812 5.92382812 1.04882812 5.92382812 1 9 C0.01 9 -0.98 9 -2 9 C-2 6.69 -2 4.38 -2 2 C-2.99 2.33 -3.98 2.66 -5 3 C-5.33 4.98 -5.66 6.96 -6 9 C-6.66 9 -7.32 9 -8 9 C-8 6.03 -8 3.06 -8 0 C-4.3147485 -0.92131287 -3.34188735 -1.15237495 0 0 Z " fill="#333333" transform="translate(318,316)"/>
<path d="M0 0 C0 2.97 0 5.94 0 9 C-0.66 9 -1.32 9 -2 9 C-2 6.69 -2 4.38 -2 2 C-3.32 2 -4.64 2 -6 2 C-6 4.31 -6 6.62 -6 9 C-6.66 9 -7.32 9 -8 9 C-8 6.03 -8 3.06 -8 0 C-4.71023192 -1.09658936 -3.28696233 -0.79953138 0 0 Z " fill="#161616" transform="translate(280,316)"/>
<path d="M0 0 C5.28 0 10.56 0 16 0 C16 0.33 16 0.66 16 1 C13.36 1 10.72 1 8 1 C7.67 2.32 7.34 3.64 7 5 C5.02 5 3.04 5 1 5 C0.67 3.35 0.34 1.7 0 0 Z " fill="#CCCCCC" transform="translate(222,290)"/>
<path d="M0 0 C0.78375 0.04125 1.5675 0.0825 2.375 0.125 C2.375 1.115 2.375 2.105 2.375 3.125 C1.055 3.125 -0.265 3.125 -1.625 3.125 C-1.625 4.775 -1.625 6.425 -1.625 8.125 C-0.305 8.125 1.015 8.125 2.375 8.125 C2.375 8.785 2.375 9.445 2.375 10.125 C0 10.25 0 10.25 -2.625 10.125 C-4.625 8.125 -4.625 8.125 -4.875 5.125 C-4.55416156 1.2749387 -3.94115238 0.18767392 0 0 Z " fill="#080808" transform="translate(327.625,314.875)"/>
<path d="M0 0 C0.66 0 1.32 0 2 0 C2 0.66 2 1.32 2 2 C2.66 2 3.32 2 4 2 C4 2.66 4 3.32 4 4 C3.34 4 2.68 4 2 4 C2 5.98 2 7.96 2 10 C2.66 10 3.32 10 4 10 C4 10.66 4 11.32 4 12 C2.35 11.67 0.7 11.34 -1 11 C-2.25 3.375 -2.25 3.375 0 0 Z " fill="#272727" transform="translate(212,313)"/>
<path d="M0 0 C0.66 0 1.32 0 2 0 C2 0.66 2 1.32 2 2 C2.66 2.33 3.32 2.66 4 3 C3.34 3 2.68 3 2 3 C2 4.98 2 6.96 2 9 C2.99 9 3.98 9 5 9 C5 9.66 5 10.32 5 11 C3.35 11 1.7 11 0 11 C-2.21538462 4.6 -2.21538462 4.6 -1.125 1.5625 C-0.75375 1.046875 -0.3825 0.53125 0 0 Z " fill="#0C0C0C" transform="translate(251,314)"/>
<path d="M0 0 C0.66 0 1.32 0 2 0 C2 0.66 2 1.32 2 2 C2.99 2 3.98 2 5 2 C5 2.66 5 3.32 5 4 C4.34 4 3.68 4 3 4 C3 5.65 3 7.3 3 9 C3.66 9 4.32 9 5 9 C5 9.66 5 10.32 5 11 C3.35 10.67 1.7 10.34 0 10 C-1.125 2.25 -1.125 2.25 0 0 Z " fill="#202020" transform="translate(241,314)"/>
<path d="M0 0 C1.98 0 3.96 0 6 0 C6 0.66 6 1.32 6 2 C5.01 2 4.02 2 3 2 C3 4.31 3 6.62 3 9 C2.01 9 1.02 9 0 9 C0 6.03 0 3.06 0 0 Z " fill="#1C1C1C" transform="translate(201,316)"/>
<path d="M0 0 C0.66 0 1.32 0 2 0 C2 0.99 2 1.98 2 3 C2.66 3.33 3.32 3.66 4 4 C3.34 4 2.68 4 2 4 C2 4.66 2 5.32 2 6 C3.65 6 5.3 6 7 6 C7 6.66 7 7.32 7 8 C4.125 8.1875 4.125 8.1875 1 8 C-1 5 -1 5 -0.625 2.3125 C-0.41875 1.549375 -0.2125 0.78625 0 0 Z " fill="#1C1C1C" transform="translate(298,317)"/>
<path d="M0 0 C0.66 0 1.32 0 2 0 C2 4.29 2 8.58 2 13 C1.34 13 0.68 13 0 13 C-0.19658808 11.58456585 -0.38187546 10.16755969 -0.5625 8.75 C-0.66691406 7.96109375 -0.77132813 7.1721875 -0.87890625 6.359375 C-1.00027349 3.99467126 -0.69633257 2.2488963 0 0 Z " fill="#030303" transform="translate(291,312)"/>
<path d="M0 0 C1.65 0 3.3 0 5 0 C5.625 2.375 5.625 2.375 6 5 C5.34 5.66 4.68 6.32 4 7 C3.01 7 2.02 7 1 7 C1.020625 6.21625 1.04125 5.4325 1.0625 4.625 C1.18684063 2.01885039 1.18684063 2.01885039 0 0 Z " fill="#6A6A6A" transform="translate(229,313)"/>
<path d="M0 0 C1.65 0.33 3.3 0.66 5 1 C5.33 1.99 5.66 2.98 6 4 C3.36 4 0.72 4 -2 4 C-1.34 2.68 -0.68 1.36 0 0 Z " fill="#D6D6D6" transform="translate(224,283)"/>
<path d="M0 0 C1.98 0 3.96 0 6 0 C5.01 0.33 4.02 0.66 3 1 C2.67 3.64 2.34 6.28 2 9 C1.34 9 0.68 9 0 9 C0 6.03 0 3.06 0 0 Z " fill="#070707" transform="translate(310,316)"/>
<path d="M0 0 C0.78375 0.04125 1.5675 0.0825 2.375 0.125 C2.375 1.115 2.375 2.105 2.375 3.125 C1.055 3.125 -0.265 3.125 -1.625 3.125 C-1.955 4.445 -2.285 5.765 -2.625 7.125 C-2.625 5.805 -2.625 4.485 -2.625 3.125 C-3.285 2.795 -3.945 2.465 -4.625 2.125 C-2.625 0.125 -2.625 0.125 0 0 Z " fill="#4D4D4D" transform="translate(327.625,314.875)"/>
<path d="M0 0 C1.65 0 3.3 0 5 0 C5 2.97 5 5.94 5 9 C4.34 9 3.68 9 3 9 C2.87625 7.88625 2.7525 6.7725 2.625 5.625 C2.3534187 1.96896323 2.3534187 1.96896323 0 0 Z " fill="#060606" transform="translate(179,316)"/>
<path d="M0 0 C1.65 0 3.3 0 5 0 C4.67 1.32 4.34 2.64 4 4 C2.35 4 0.7 4 -1 4 C-0.67 2.68 -0.34 1.36 0 0 Z " fill="#F9F9F9" transform="translate(299,291)"/>
<path d="M0 0 C1.65 0 3.3 0 5 0 C4.67 1.32 4.34 2.64 4 4 C2.35 4 0.7 4 -1 4 C-0.67 2.68 -0.34 1.36 0 0 Z " fill="#F9F9F9" transform="translate(168,291)"/>
<path d="M0 0 C1.65 0.33 3.3 0.66 5 1 C5 1.99 5 2.98 5 4 C3.02 4 1.04 4 -1 4 C-0.67 2.68 -0.34 1.36 0 0 Z " fill="#E5E5E5" transform="translate(299,283)"/>
<path d="M0 0 C1.65 0.33 3.3 0.66 5 1 C5 1.99 5 2.98 5 4 C3.02 4 1.04 4 -1 4 C-0.67 2.68 -0.34 1.36 0 0 Z " fill="#E5E5E5" transform="translate(168,283)"/>
<path d="M0 0 C2 0 4 0 6 0 C6.33 0.99 6.66 1.98 7 3 C5.02 3.33 3.04 3.66 1 4 C0.67 2.68 0.34 1.36 0 0 Z " fill="#616161" transform="translate(188,321)"/>
<path d="M0 0 C0.66 0 1.32 0 2 0 C2 1.65 2 3.3 2 5 C3.65 5.33 5.3 5.66 7 6 C7 6.66 7 7.32 7 8 C5.35 8 3.7 8 2 8 C0 1.125 0 1.125 0 0 Z " fill="#3C3C3C" transform="translate(249,317)"/>
<path d="M0 0 C0.99 0 1.98 0 3 0 C2.67 2.97 2.34 5.94 2 9 C1.34 9 0.68 9 0 9 C0 6.03 0 3.06 0 0 Z " fill="#050505" transform="translate(170,316)"/>
<path d="M0 0 C1.32 0 2.64 0 4 0 C3.67 1.65 3.34 3.3 3 5 C2.01 4.67 1.02 4.34 0 4 C0 2.68 0 1.36 0 0 Z " fill="#E1E1E1" transform="translate(287,318)"/>
<path d="M0 0 C1.65 0.33 3.3 0.66 5 1 C4.67 1.99 4.34 2.98 4 4 C2.68 3.67 1.36 3.34 0 3 C0 2.01 0 1.02 0 0 Z " fill="#6B6B6B" transform="translate(336,315)"/>
</svg>
